<svg width="686" height="92" xmlns="http://www.w3.org/2000/svg" xmlns:xlink="http://www.w3.org/1999/xlink" style=""><rect id="backgroundrect" width="100%" height="100%" x="0" y="0" fill="none" stroke="none"/>
  <title>
    izitravel
  </title>
  <defs>
    <path id="a" d="M0 .4v29h13V.4H0z"/>
    <path id="c" d="M1 32h34V0H1z"/>
    <path id="e" d="M.8 32H46V0H.8v32z"/>
    <path id="g" d="M343 0H0v91.5h686V0H343z"/>
  </defs>
  
<g class="currentLayer" style=""><title>Layer 1</title><g fill="none" fill-rule="evenodd" id="svg_1" class="">
    <path d="M186.00000035762787,60.20000076293945 c-8.5,0 -15.5,7 -15.5,15.600000381469727 s7,15.600000381469727 15.600000381469727,15.600000381469727 c8.800000190734863,0 15.800000190734863,-7 15.800000190734863,-15.600000381469727 s-7,-15.600000381469727 -15.600000381469727,-15.600000381469727 m0,6 c5.400000095367432,0 9.600000381469727,4.300000190734863 9.600000381469727,9.600000381469727 s-4.199999809265137,9.600000381469727 -9.5,9.600000381469727 c-5.199999809265137,0 -9.5,-4.300000190734863 -9.5,-9.600000381469727 s4.300000190734863,-9.600000381469727 9.600000381469727,-9.600000381469727 " fill="#CA2449" id="svg_2"/>
    <path fill="#255066" d="M228.39999425411224,91.5 V17.200000762939453 h-26.700000762939453 V0.20000000298023224 h73 v17 H248.00000035762787 v74.30000305175781 h-19.600000381469727 m112.19999694824219,-62 c0,-7.599999904632568 -6,-12.300000190734863 -13.600000381469727,-12.300000190734863 h-20.5 V42 H327.00000035762787 c7.699999809265137,0 13.600000381469727,-4.800000190734863 13.600000381469727,-12.600000381469727 m-2,62 l-18,-32.400001525878906 h-14 v32.5 H287.00000035762787 V0 h42.79999923706055 c19,0 30.799999237060547,12.600000381469727 30.799999237060547,29.5 c0,16 -10.300000190734863,24.799999237060547 -20,27.200000762939453 L361.00000035762787,91.5 h-22.5 m74.5,-72 L398.6000064611435,59 H427.00000035762787 l-14,-39.599998474121094 zm25.299999237060547,72 L432.50000035762787,76 h-39 l-6,15.5 h-22 L400.7999881505966,0 H425.00000035762787 l35.400001525878906,91.5 h-22 zm42.20000076293945,0 L445.2999881505966,0 h22 l25.399999618530273,70.19999694824219 L518.0000003576279,0.20000000298023224 h22 l-35,91.30000305175781 h-24.5 m68,0 V0 h64.80000305175781 v17.200000762939453 H568.0000003576279 v19.200000762939453 h44.29999923706055 v17 H568.0000003576279 v21 h45.29999923706055 v17 h-64.69999694824219 " id="svg_3"/>
    <mask id="h" fill="#fff">
      <use xlink:href="#g" id="svg_4"/>
    </mask>
    <path fill="#255066" mask="url(#h)" d="M627.7000125646591,91.5 V0 h19.5 v74.30000305175781 H686.0000003576279 v17.200000762939453 h-58.29999923706055 " id="svg_5"/>
    <path d="M28.00000035762787,80 l11,2.5999999046325684 l-1.399999976158142,8.800000190734863 H1.4000003337860107 L3.5762786865234375e-7,82.5999984741211 L11.000000357627869,80 V45.5 l-9.600000381469727,-0.20000000298023224 l-1.399999976158142,-9 l20.299999237060547,-6.5 H28.00000035762787 V80 zm0,-70.4000015258789 c0,5.300000190734863 -4.199999809265137,9.600000381469727 -9.5,9.600000381469727 S9.000000357627869,15 9.000000357627869,9.600000381469727 C9.000000357627869,4.400000095367432 13.200000166893005,0 18.50000035762787,0 S28.00000035762787,4.5 28.00000035762787,9.699999809265137 z" fill="#CA2449" mask="url(#h)" id="svg_6"/>
    <path fill="#CA2449" d="M97.80000340938568,80.30000305175781 l-1.5,11 H47.799999594688416 L46.59999883174896,83 l30.799999237060547,-41.599998474121094 h-18 l-2.700000047683716,11 L48.00000035762787,51 v-9.699999809265137 l1.2999999523162842,-10.699999809265137 H95.00000035762787 l1.2999999523162842,9.300000190734863 L67.69999730587006,80 h18.700000762939453 l2.5,-11 l8.699999809265137,1.5 v9.5 M134.00000035762787,80 l10.800000190734863,2.5999999046325684 l-1.2999999523162842,8.800000190734863 h-36.29999923706055 l-1.399999976158142,-8.800000190734863 l11,-2.5999999046325684 V45.5 l-9.600000381469727,-0.20000000298023224 l-1.399999976158142,-9 l20.299999237060547,-6.5 h8 V80 zm0,-70.4000015258789 c0,5.300000190734863 -4.400000095367432,9.600000381469727 -9.699999809265137,9.600000381469727 c-5.300000190734863,0 -9.5,-4.300000190734863 -9.5,-9.600000381469727 c0,-5.199999809265137 4.199999809265137,-9.5 9.5,-9.5 s9.600000381469727,4.5 9.600000381469727,9.699999809265137 z" id="svg_7"/>
  </g></g></svg>