<svg viewBox="0 0 327.062 80" xmlns="http://www.w3.org/2000/svg" xmlns:xlink= "http://www.w3.org/1999/xlink">
  <path fill="#D51317" d="M0 .03v37.25h11.096V11.306h31.67V.03"></path>
  <path fill="#00853E" d="M91.016 0v37.21H79.98V11.274H48.29V0"></path>
  <path fill="#2581C4" d="M.016 80.035V42.793h11.096v25.96H42.78v11.282"></path>
  <path fill="#F7A600" d="M91.03 80.035v-37.25H79.998v26H48.305v11.25"></path>
  <path fill="#00B1EB" d="M16.832 16.992h57.103v46.25H16.832z"></path>
  <path fill="#5B5A66" d="M125.12 54.238c3.03 2.89 7.82 5.352 12.544 5.352 5.217 0 8.738-2.815 8.738-7.113 0-10.998-24.033-8.53-24.033-24.035 0-8.388 7.047-13.812 16.28-13.812 4.93 0 10.217 1.622 13.884 5.073l-3.173 5.708c-2.746-2.536-7.045-4.367-10.99-4.367-5.076 0-8.952 2.747-8.952 7.045 0 10.644 23.96 7.823 23.96 23.82 0 7.828-5.704 14.166-15.855 14.166-5.99 0-12.052-2.324-16.35-6.554l3.948-5.282zM157.422 15.474h18.256c9.09 0 15.573 6.133 15.573 15.58 0 9.438-6.482 15.783-15.572 15.783h-11.28v18.396h-6.976v-49.76zm17.128 25.3c5.92 0 9.655-3.735 9.655-9.72 0-5.928-3.733-9.518-9.583-9.518H164.4v19.237h10.15zM194.327 15.474h17.41c8.46 0 14.446 4.652 14.446 12.687 0 4.862-2.396 8.743-6.2 10.713v.145c5.288 1.546 8.245 6.48 8.245 12.046 0 9.375-7.33 14.168-16.066 14.168h-17.834V15.474zm17.41 20.93c4.51 0 7.328-3.17 7.328-7.538 0-4.37-2.68-7.33-7.4-7.33h-10.36v14.87h10.432zm.777 22.77c5.355 0 8.528-3.387 8.528-8.532 0-5.002-3.313-8.454-8.528-8.454h-11.208v16.986h11.208zM319.662 15.474l-12.475 35.168c-.913 2.678-1.9 6.836-1.9 6.836h-.14s-1.06-4.158-1.905-6.836L290.84 15.474h-47.783v6.063h17.127v43.696h6.906V21.537h18.493l15.97 43.696h7.328l18.184-49.76h-7.402z"></path>
</svg>
